# AST/ASF file generated using VICON BodyLanguage
# -----------------------------------------------
:version 1.10
:name VICON
:units
  mass 1.0
  length 0.45
  angle deg
:documentation
   .ast/.asf automatically generated from VICON data using
   VICON BodyBuilder and BodyLanguage model FoxedUp or BRILLIANT.MOD
:root
   order TX TY TZ RX RY RZ
   axis XYZ
   position 0 0 0  
   orientation 0 0 0 
:bonedata
  begin
     id 1 
     name lhipjoint
     direction 0.677091 -0.635792 0.370561 
     length 2.74323 
     axis 0 0 0  XYZ
  end
  begin
     id 2 
     name lfemur
     direction 0.34202 -0.939693 0  
     length 7.44995  
     axis 0 0 20  XYZ
    dof rx ry rz
    limits (-160.0 20.0)
           (-70.0 70.0)
           (-60.0 70.0)
  end
  begin
     id 3 
     name ltibia
     direction 0.34202 -0.939693 0   
     length 7.34467   
     axis 0 0 20   XYZ
    dof rx
    limits (-10.0 170.0)
  end
  begin
     id 4 
     name lfoot
     direction 0.101953 -0.280114 0.954537   
     length 1.72105   
     axis -90 7.62852e-016 20   XYZ
    dof rx rz
    limits (-45.0 90.0)
           (-70.0 20.0)
  end
  begin
     id 5 
     name ltoes
     direction 1.53537e-011 -4.21915e-011 1   
     length 0.865872   
     axis -90 7.62852e-016 20   XYZ
    dof rx
    limits (-90.0 20.0)
  end
  begin
     id 6 
     name rhipjoint
     direction -0.695735 -0.620586 0.361699   
     length 2.81045  
     axis 0 0 0  XYZ 
  end
  begin
     id 7 
     name rfemur
     direction -0.34202 -0.939693 0   
     length 7.29387   
     axis 0 0 -20   XYZ
    dof rx ry rz
    limits (-160.0 20.0)
           (-70.0 70.0)
           (-70.0 60.0)
  end
  begin
     id 8 
     name rtibia
     direction -0.34202 -0.939693 0   
     length 7.44935   
     axis 0 0 -20   XYZ
    dof rx
    limits (-10.0 170.0)
 end
 begin
     id 9 
     name rfoot
     direction -0.104163 -0.286184 0.952496   
     length 1.77731  
     axis -90 -7.62852e-016 -20   XYZ
    dof rx rz
    limits (-45.0 90.0)
           (-20.0 70.0)
  end
  begin
     id 10 
     name rtoes
     direction -1.5355e-011 -4.21888e-011 1   
     length 0.892424   
     axis -90 -7.62852e-016 -20   XYZ
    dof rx
    limits (-90.0 20.0)
  end
  begin
     id 11 
     name lowerback
     direction 0.0100202 0.997226 -0.0737589   
     length 2.16892   
     axis 0 0 0   XYZ
    dof rx ry rz
    limits (-20.0 45.0)
           (-30.0 30.0)
           (-30.0 30.0)
  end
  begin
     id 12 
     name upperback
     direction 0.00432398 0.999988 -0.00215019   
     length 2.17326   
     axis 0 0 0   XYZ
    dof rx ry rz
    limits (-20.0 45.0)
           (-30.0 30.0)
           (-30.0 30.0)
  end
  begin
     id 13 
     name thorax
     direction -0.00195047 0.999485 0.0320434   
     length 2.18139   
     axis 0 0 0   XYZ
    dof rx ry rz
    limits (-20.0 45.0)
           (-30.0 30.0)
           (-30.0 30.0)
  end
  begin
     id 14 
     name lowerneck
     direction 0.00782762 0.986241 0.165128   
     length 1.88415   
     axis 0 0 0   XYZ
    dof rx ry rz
    limits (-20.0 45.0)
           (-30.0 30.0)
           (-30.0 30.0)
  end
  begin
     id 15 
     name upperneck
     direction 0.00988667 0.981098 -0.193258   
     length 1.9242   
     axis 0 0 0   XYZ
    dof rx ry rz
    limits (-20.0 45.0)
           (-30.0 30.0)
           (-30.0 30.0)
  end
  begin
     id 16
     name head
     direction 0.00252199 0.996513 -0.0833958  
     length 1.93887  
     axis 0 0 0   XYZ
    dof rx ry rz
    limits (-20.0 45.0)
           (-30.0 30.0)
           (-30.0 30.0)
  end
  begin
     id 17 
     name lclavicle
     direction 0.929492 0.368193 -0.0218667  
     length 3.5955  
     axis 0 0 0   XYZ
    dof ry rz
    limits (-20.0 10.0)
           (0.0 20.0)
  end
  begin
     id 18 
     name lhumerus
     direction 1 -4.48972e-011 1.41911e-027   
     length 5.2795   
     axis 180 -30 -90   XYZ
    dof rx ry rz
    limits (-60.0 90.0)
           (-90.0 90.0)
           (-90.0 90.0)
  end
  begin
     id 19
     name lradius
     direction 1 -4.48963e-011 7.05772e-027   
     length 3.53504   
     axis 180 -30 -90   XYZ
    dof rx
    limits (-10.0 170.0)
  end
  begin
     id 20
     name lwrist
     direction 1 -4.48957e-011 9.54866e-027   
     length 1.76752   
     axis -7.69462e-015 90 90   XYZ
    dof ry
    limits (-180.0 0.0)
 end
  begin
     id 21 
     name lhand
     direction 1 -4.48979e-011 1.90973e-026   
     length 0.667948   
     axis -1.21857e-014 90 90   XYZ
    dof rx rz
    limits (-90.0 90.0)
           (-45.0 45.0)
  end
  begin
     id 22 
     name lfingers
     direction 1 -4.48987e-011 3.81946e-026   
     length 0.538517   
     axis -2.43714e-014 90 90   XYZ
    dof rx
    limits (0.0 90.0)
  end
  begin
     id 23
     name lthumb
     direction 0.707107 -6.34962e-011 0.707107   
     length 0.773206   
     axis -90 45 2.85299e-015   XYZ
    dof rx rz
    limits (-45.0 45.0)
           (-45.0 45.0)
  end
  begin
     id 24 
     name rclavicle
     direction -0.898763 0.414256 -0.143584   
     length 3.5176  
     axis 0 0 0   XYZ 
    dof ry rz
    limits (-10.0 20.0)
           (-20.0 0.0)
  end
  begin
     id 25 
     name rhumerus
     direction -1 -4.48971e-011 1.129e-027  
     length 5.25035   
     axis 180 30 90   XYZ
    dof rx ry rz
    limits (-90.0 60.0)
           (-90.0 90.0)
           (-90.0 90.0)
  end
  begin
     id 26 
     name rradius
     direction -1 -4.48955e-011 6.34664e-027   
     length 3.58884   
     axis 180 30 90   XYZ
    dof rx
    limits (-10.0 170.0)
  end
  begin
     id 27 
     name rwrist
     direction -1 -4.48966e-011 9.54866e-027   
     length 1.79442   
     axis -7.69462e-015 -90 -90   XYZ
    dof ry
    limits (-180.0 0.0)
  end
  begin
     id 28
     name rhand
     direction -1 -4.48973e-011 1.90973e-026   
     length 0.779235   
     axis -1.21857e-014 -90 -90   XYZ
    dof rx rz
    limits (-90.0 90.0)
           (-45.0 45.0)
  end
  begin
     id 29
     name rfingers
     direction -1 -4.48984e-011 3.81946e-026   
     length 0.62824   
     axis -2.43714e-014 -90 -90   XYZ
    dof rx
    limits (0.0 90.0)
  end
  begin
     id 30
     name rthumb
     direction -0.707107 -6.34968e-011 0.707107   
     length 0.90203   
     axis -90 -45 -2.85299e-015   XYZ
    dof rx rz
    limits (-45.0 45.0)
           (-45.0 45.0)
  end
:hierarchy
  begin
    root lhipjoint rhipjoint lowerback
    lhipjoint lfemur
    lfemur ltibia
    ltibia lfoot
    lfoot ltoes
    rhipjoint rfemur
    rfemur rtibia
    rtibia rfoot
    rfoot rtoes
    lowerback upperback
    upperback thorax
    thorax lowerneck lclavicle rclavicle
    lowerneck upperneck
    upperneck head
    lclavicle lhumerus
    lhumerus lradius
    lradius lwrist
    lwrist lhand lthumb
    lhand lfingers
    rclavicle rhumerus
    rhumerus rradius
    rradius rwrist
    rwrist rhand rthumb
    rhand rfingers
  end

#!OML:ASF I:\Random Stuff\random\construction\7_22_03\Session 2\subj1.ASF
:FULLY-SPECIFIED
:DEGREES
64
root -3.96243 17.779 -2.86287 -5.84291 79.0844 -13.0421
lowerback 3.69981 0.487796 -4.5314
upperback -1.55582 0.399869 -0.722635
thorax -3.71103 0.302622 1.76691
lowerneck -17.4351 -7.95901 -9.76042
upperneck 34.1954 -11.3098 9.46514
head 16.3797 -4.45342 3.67819
rclavicle -2.84262e-014 0
rhumerus -37.5279 0.562264 -81.0109
rradius 29.4702
rwrist -3.90016
rhand -19.2779 20.8879
rfingers 7.12502
rthumb 7.03691 -8.97514
lclavicle -2.84262e-014 0
lhumerus -41.2656 3.44161 82.352
lradius 31.5339
lwrist 29.0423
lhand -20.6428 58.4002
lfingers 7.12502
lthumb 5.71926 -271.697
rfemur -4.56373 0.564484 15.8241
rtibia 6.54579
rfoot -0.191222 -25.0514
rtoes -16.5398
lfemur -10.5356 -7.18303 -17.0332
ltibia 19.125
lfoot -14.7118 9.07211
ltoes -24.7675
65
root -3.97513 17.7843 -2.90163 -3.89015 78.7911 -10.9699
lowerback 4.20272 0.5825 -4.89168
upperback -1.42619 0.477172 -0.862754
thorax -3.86901 0.349618 1.81516
lowerneck -17.1708 -9.37339 -9.87369
upperneck 34.011 -12.947 8.06555
head 16.3185 -5.3658 2.71594
rclavicle 2.93207e-014 2.38542e-015
rhumerus -37.2365 0.817645 -81.2174
rradius 30.3963
rwrist -4.86317
rhand -19.6457 20.748
rfingers 7.12502
rthumb 6.68186 -9.1266
lclavicle 2.93207e-014 2.38542e-015
lhumerus -40.9815 2.73889 82.8666
lradius 32.5411
lwrist 29.4816
lhand -20.6224 58.3454
lfingers 7.12502
lthumb 5.73895 -271.752
rfemur -7.41755 0.870278 15.2108
rtibia 11.8167
rfoot -1.78321 -25.5333
rtoes -16.4993
lfemur -10.0367 -6.68173 -17.5548
ltibia 18.2558
lfoot -14.3459 8.82434
ltoes -24.1697
66
root -3.98846 17.7908 -2.93646 -2.34468 78.3913 -9.26393
lowerback 4.73973 0.688654 -5.20489
upperback -1.27222 0.567849 -0.988874
thorax -4.02185 0.401944 1.84902
lowerneck -17.0831 -9.42828 -9.94156
upperneck 34.1133 -13.0698 8.20818
head 16.3879 -5.40488 2.7695
rclavicle 1.53064e-014 -2.46493e-014
rhumerus -36.908 1.02538 -81.3961
rradius 31.4174
rwrist -5.76242
rhand -19.8819 20.5425
rfingers 7.12502
rthumb 6.45387 -9.33915
lclavicle 1.53064e-014 -2.46493e-014
lhumerus -40.6772 2.08885 83.2913
lradius 33.5888
lwrist 29.8823
lhand -20.5886 58.3377
lfingers 7.12502
lthumb 5.77152 -271.761
rfemur -9.70252 0.0730986 14.8373
rtibia 15.9129
rfoot -2.35169 -24.8222
rtoes -17.7669
lfemur -9.44832 -6.1962 -18.0071
ltibia 17.3337
lfoot -13.8993 8.6942
ltoes -23.9783
67
root -3.99918 17.7983 -2.96869 -1.18966 77.9234 -7.91312
lowerback 5.26553 0.790596 -5.49482
upperback -1.06651 0.655345 -1.06626
thorax -4.1147 0.450413 1.91978
lowerneck -17.0389 -9.27715 -9.38792
upperneck 33.9946 -12.8425 7.73792
head 16.1841 -5.31116 2.51985
rclavicle -4.06515e-014 -6.36111e-015
rhumerus -36.5071 1.28472 -81.5441
rradius 32.5436
rwrist -6.72682
rhand -20.1244 20.3955
rfingers 7.12502
rthumb 6.21969 -9.49319
lclavicle -4.06515e-014 -6.36111e-015
lhumerus -40.3199 1.56971 83.6567
lradius 34.6514
lwrist 30.2297
lhand -20.5945 58.2763
lfingers 7.12502
lthumb 5.76585 -271.822
rfemur -11.7232 -0.767696 14.582
rtibia 19.4694
rfoot -2.26697 -23.994
rtoes -19.0695
lfemur -8.80445 -5.97942 -18.3986
ltibia 16.4476
lfoot -13.4725 8.90141
ltoes -24.1219
68
root -4.01086 17.8075 -2.99996 -0.310908 77.503 -6.90465
lowerback 5.84941 0.880121 -5.6922
upperback -0.955059 0.722432 -1.12635
thorax -4.3362 0.491416 1.95582
lowerneck -16.9936 -9.27258 -9.30928
upperneck 34.1619 -12.8684 7.73416
head 16.2531 -5.30748 2.50601
rclavicle -1.59028e-014 -7.95139e-016
rhumerus -36.2051 1.58523 -81.6672
rradius 33.7402
rwrist -7.80667
rhand -20.6128 20.3461
rfingers 7.12502
rthumb 5.74821 -9.55596
lclavicle -1.59028e-014 -7.95139e-016
lhumerus -40.0531 1.1438 83.9537
lradius 35.6614
lwrist 30.4419
lhand -20.6462 58.0368
lfingers 7.12502
lthumb 5.71591 -272.06
rfemur -13.6402 -1.81048 14.4212
rtibia 22.6512
rfoot -2.16635 -22.9997
rtoes -17.5623
lfemur -8.31356 -5.97869 -18.7206
ltibia 15.7355
lfoot -13.1384 9.2815
ltoes -24.1281
69
root -4.02243 17.8151 -3.02704 -0.252645 77.1068 -6.79036
lowerback 6.21891 0.937287 -5.72728
upperback -0.765857 0.777933 -1.11021
thorax -4.35254 0.516955 1.98409
lowerneck -17.0194 -9.24787 -9.23614
upperneck 34.3015 -12.8512 7.71682
head 16.3192 -5.28799 2.4927
rclavicle 1.85864e-014 -2.62396e-014
rhumerus -35.6933 1.84545 -81.7187
rradius 34.9189
rwrist -8.84847
rhand -21.2069 20.3438
rfingers 7.12502
rthumb 5.17457 -9.573
lclavicle 1.85864e-014 -2.62396e-014
lhumerus -39.6353 0.909313 84.1721
lradius 36.5819
lwrist 30.4237
lhand -20.579 57.7737
lfingers 7.12502
lthumb 5.78085 -272.325
rfemur -15.498 -2.95613 14.525
rtibia 25.524
rfoot -2.03124 -21.8769
rtoes -13.1306
lfemur -7.98072 -5.90804 -18.8138
ltibia 15.1961
lfoot -12.8744 9.57253
ltoes -24.0147
70
root -4.04216 17.8219 -3.04577 -0.679279 76.9177 -7.25933
lowerback 6.61242 0.94291 -5.65146
upperback -0.603126 0.771804 -1.05792
thorax -4.40377 0.510921 1.99345
lowerneck -17.1083 -9.27028 -8.9833
upperneck 34.4296 -12.8833 7.48528
head 16.3607 -5.29427 2.34224
rclavicle -2.29596e-014 -1.27222e-014
rhumerus -35.1062 1.8822 -81.6708
rradius 36.1322
rwrist -9.88018
rhand -21.6603 20.0206
rfingers 7.12502
rthumb 4.73678 -9.90643
lclavicle -2.29596e-014 -1.27222e-014
lhumerus -39.2094 0.585926 84.3675
lradius 37.4826
lwrist 30.3745
lhand -20.5284 57.812
lfingers 7.12502
lthumb 5.82971 -272.288
rfemur -17.3039 -4.25016 14.8538
rtibia 28.0609
rfoot -1.6888 -20.6391
rtoes -7.52081
lfemur -7.90264 -5.51937 -18.7121
ltibia 14.8285
lfoot -12.631 9.34425
ltoes -23.975
71
root -4.04403 17.827 -3.06507 -0.863267 76.6149 -7.46287
lowerback 6.89212 0.967442 -5.52943
upperback -0.460596 0.801985 -1.0234
thorax -4.41343 0.521072 1.9558
lowerneck -17.0992 -9.28035 -8.88816
upperneck 34.5583 -12.9249 7.45793
head 16.4173 -5.2984 2.30919
rclavicle 5.76476e-015 1.59028e-015
rhumerus -34.6042 1.92344 -81.5772
rradius 37.466
rwrist -11.0233
rhand -21.9626 19.4392
rfingers 7.12502
rthumb 4.44492 -10.4942
lclavicle 5.76476e-015 1.59028e-015
lhumerus -38.8809 0.251615 84.5638
lradius 38.3563
lwrist 30.4616
lhand -20.6388 57.8536
lfingers 7.12502
lthumb 5.72307 -272.244
rfemur -18.9207 -5.48622 15.1283
rtibia 30.205
rfoot -1.40747 -19.2529
rtoes -3.96668
lfemur -7.759 -5.28849 -18.7015
ltibia 14.5514
lfoot -12.5253 9.38453
ltoes -23.7166
72
root -4.03503 17.8321 -3.08015 -1.10249 76.3006 -7.71981
lowerback 7.13895 0.971526 -5.35833
upperback -0.370357 0.810346 -0.969045
thorax -4.45691 0.521108 1.91344
lowerneck -16.9415 -9.24882 -8.9693
upperneck 34.648 -12.949 7.69777
head 16.4621 -5.28584 2.43178
rclavicle 5.1684e-015 4.77083e-015
rhumerus -34.2614 2.1122 -81.492
rradius 38.9684
rwrist -12.3035
rhand -22.4307 19.1602
rfingers 7.12502
rthumb 3.99282 -10.7822
lclavicle 5.1684e-015 4.77083e-015
lhumerus -38.6582 -0.0679782 84.7424
lradius 39.2228
lwrist 30.6163
lhand -20.6742 57.814
lfingers 7.12502
lthumb 5.68888 -272.282
rfemur -20.2999 -6.49789 15.4123
rtibia 31.819
rfoot -1.48594 -17.7949
rtoes -3.81256
lfemur -7.58 -5.24832 -18.6779
ltibia 14.3065
lfoot -12.456 9.64032
ltoes -23.5887
73
root -4.02086 17.8374 -3.09368 -0.405067 76.087 -7.12329
lowerback 7.2786 0.949353 -5.332
upperback -0.311625 0.776813 -0.954897
thorax -4.47154 0.503502 1.91602
lowerneck -16.8041 -9.25636 -9.00213
upperneck 34.7078 -12.9982 7.8065
head 16.4809 -5.29667 2.48178
rclavicle 1.39149e-014 7.95139e-015
rhumerus -33.9454 2.33291 -81.3443
rradius 40.5396
rwrist -13.5441
rhand -23.1752 19.1458
rfingers 7.12502
rthumb 3.27387 -10.8088
lclavicle 1.39149e-014 7.95139e-015
lhumerus -38.4451 -0.394742 84.9191
lradius 40.0271
lwrist 30.6797
lhand -20.641 57.9498
lfingers 7.12502
lthumb 5.72097 -272.147
rfemur -21.6003 -7.41619 15.4403
rtibia 32.8384
rfoot -1.88625 -15.7117
rtoes -5.18854
lfemur -7.50534 -5.26279 -18.8806
ltibia 14.0487
lfoot -12.3494 9.85965
ltoes -23.7329
